{
    "asset" : {
        "generator" : "Khronos glTF Blender I/O v1.6.16",
        "version" : "2.0"
    },
    "scene" : 0,
    "scenes" : [
        {
            "name" : "Scene",
            "nodes" : [
                0,
                1
            ]
        }
    ],
    "nodes" : [
        {
            "mesh" : 0,
            "name" : "14"
        },
        {
            "mesh" : 1,
            "name" : "3"
        }
    ],
    "materials" : [
        {
            "doubleSided" : true,
            "name" : "Rojo",
            "normalTexture" : {
                "index" : 0
            },
            "pbrMetallicRoughness" : {
                "baseColorTexture" : {
                    "index" : 1
                },
                "metallicRoughnessTexture" : {
                    "index" : 2
                }
            }
        },
        {
            "doubleSided" : true,
            "name" : "Metal",
            "normalTexture" : {
                "index" : 3
            },
            "pbrMetallicRoughness" : {
                "baseColorTexture" : {
                    "index" : 4
                },
                "metallicRoughnessTexture" : {
                    "index" : 5
                }
            }
        }
    ],
    "meshes" : [
        {
            "name" : "001-0-1",
            "primitives" : [
                {
                    "attributes" : {
                        "POSITION" : 0,
                        "NORMAL" : 1,
                        "TEXCOORD_0" : 2
                    },
                    "indices" : 3,
                    "material" : 0
                }
            ]
        },
        {
            "name" : "000-0-0",
            "primitives" : [
                {
                    "attributes" : {
                        "POSITION" : 4,
                        "NORMAL" : 5,
                        "TEXCOORD_0" : 6
                    },
                    "indices" : 7,
                    "material" : 1
                }
            ]
        }
    ],
    "textures" : [
        {
            "sampler" : 0,
            "source" : 0
        },
        {
            "sampler" : 0,
            "source" : 1
        },
        {
            "sampler" : 0,
            "source" : 2
        },
        {
            "sampler" : 0,
            "source" : 3
        },
        {
            "sampler" : 0,
            "source" : 4
        },
        {
            "sampler" : 0,
            "source" : 5
        }
    ],
    "images" : [
        {
            "bufferView" : 4,
            "mimeType" : "image/png",
            "name" : "Rojo_Normal_OpenGL"
        },
        {
            "bufferView" : 5,
            "mimeType" : "image/png",
            "name" : "Rojo_Base_Color"
        },
        {
            "bufferView" : 6,
            "mimeType" : "image/png",
            "name" : "Rojo_Metallic-Rojo_Roughness"
        },
        {
            "bufferView" : 11,
            "mimeType" : "image/png",
            "name" : "Metal_Height"
        },
        {
            "bufferView" : 12,
            "mimeType" : "image/png",
            "name" : "Metal_Base_Color"
        },
        {
            "bufferView" : 13,
            "mimeType" : "image/png",
            "name" : "Metal_Metallic-Metal_Roughness"
        }
    ],
    "accessors" : [
        {
            "bufferView" : 0,
            "componentType" : 5126,
            "count" : 308,
            "max" : [
                0.5201215744018555,
                4.352516174316406,
                0.5704079866409302
            ],
            "min" : [
                -2.9498300552368164,
                3.244770050048828,
                -0.5704076290130615
            ],
            "type" : "VEC3"
        },
        {
            "bufferView" : 1,
            "componentType" : 5126,
            "count" : 308,
            "type" : "VEC3"
        },
        {
            "bufferView" : 2,
            "componentType" : 5126,
            "count" : 308,
            "type" : "VEC2"
        },
        {
            "bufferView" : 3,
            "componentType" : 5123,
            "count" : 1434,
            "type" : "SCALAR"
        },
        {
            "bufferView" : 7,
            "componentType" : 5126,
            "count" : 3103,
            "max" : [
                2.8719170093536377,
                4.8560099601745605,
                0.6896139979362488
            ],
            "min" : [
                -2.2188899517059326,
                1.3848299980163574,
                -0.6896136403083801
            ],
            "type" : "VEC3"
        },
        {
            "bufferView" : 8,
            "componentType" : 5126,
            "count" : 3103,
            "type" : "VEC3"
        },
        {
            "bufferView" : 9,
            "componentType" : 5126,
            "count" : 3103,
            "type" : "VEC2"
        },
        {
            "bufferView" : 10,
            "componentType" : 5123,
            "count" : 13953,
            "type" : "SCALAR"
        }
    ],
    "bufferViews" : [
        {
            "buffer" : 0,
            "byteLength" : 3696,
            "byteOffset" : 0
        },
        {
            "buffer" : 0,
            "byteLength" : 3696,
            "byteOffset" : 3696
        },
        {
            "buffer" : 0,
            "byteLength" : 2464,
            "byteOffset" : 7392
        },
        {
            "buffer" : 0,
            "byteLength" : 2868,
            "byteOffset" : 9856
        },
        {
            "buffer" : 0,
            "byteLength" : 37311,
            "byteOffset" : 12724
        },
        {
            "buffer" : 0,
            "byteLength" : 32517,
            "byteOffset" : 50036
        },
        {
            "buffer" : 0,
            "byteLength" : 48925,
            "byteOffset" : 82556
        },
        {
            "buffer" : 0,
            "byteLength" : 37236,
            "byteOffset" : 131484
        },
        {
            "buffer" : 0,
            "byteLength" : 37236,
            "byteOffset" : 168720
        },
        {
            "buffer" : 0,
            "byteLength" : 24824,
            "byteOffset" : 205956
        },
        {
            "buffer" : 0,
            "byteLength" : 27906,
            "byteOffset" : 230780
        },
        {
            "buffer" : 0,
            "byteLength" : 4148,
            "byteOffset" : 258688
        },
        {
            "buffer" : 0,
            "byteLength" : 37802,
            "byteOffset" : 262836
        },
        {
            "buffer" : 0,
            "byteLength" : 203463,
            "byteOffset" : 300640
        }
    ],
    "samplers" : [
        {
            "magFilter" : 9729,
            "minFilter" : 9987
        }
    ],
    "buffers" : [
        {
            "byteLength" : 504104,
            "uri" : "data:application/octet-stream;base64,"
        }
    ]
}
