{
  "asset": {
    "version": "2.0",
    "generator": "THREE.GLTFExporter"
  },
  "scenes": [
    {
      "name": "Scene",
      "nodes": [
        0,
        1,
        4
      ]
    }
  ],
  "scene": 0,
  "nodes": [
    {
      "matrix": [
        1,
        0,
        0,
        0,
        0,
        1,
        0,
        0,
        0,
        0,
        1,
        0,
        10,
        20,
        15,
        1
      ],
      "name": "DirectionalLight 1",
      "extensions": {
        "KHR_lights_punctual": {
          "light": 0
        }
      }
    },
    {
      "matrix": [
        1,
        0,
        0,
        0,
        0,
        1,
        0,
        0,
        0,
        0,
        1,
        0,
        -11.65,
        6.949,
        -20.682,
        1
      ],
      "name": "PointLight 2",
      "extensions": {
        "KHR_lights_punctual": {
          "light": 1
        }
      }
    },
    {
      "name": "mesh_0",
      "mesh": 0
    },
    {
      "matrix": [
        -1.192094671864652e-7,
        1.0000001192094672,
        0,
        0,
        8.344650765934603e-7,
        -1.192094671864652e-7,
        1.000000119209119,
        0,
        1.000000119209119,
        0,
        -9.536745437799254e-7,
        0,
        0,
        0,
        0,
        1
      ],
      "name": "glbxzcom-shrw-00911",
      "extras": {
        "name": "glbxz.com-shrw-0091.1"
      },
      "children": [
        2
      ]
    },
    {
      "name": "glbxz.com-shrw-0091.glb",
      "children": [
        3
      ]
    }
  ],
  "extensions": {
    "KHR_lights_punctual": {
      "lights": [
        {
          "name": "DirectionalLight 1",
          "color": [
            1,
            1,
            1
          ],
          "intensity": 1,
          "type": "directional"
        },
        {
          "name": "PointLight 2",
          "color": [
            1,
            1,
            1
          ],
          "intensity": 1,
          "type": "point"
        }
      ]
    }
  },
  "bufferViews": [
    {
      "buffer": 0,
      "byteOffset": 0,
      "byteLength": 21024,
      "target": 34962,
      "byteStride": 16
    },
    {
      "buffer": 0,
      "byteOffset": 21024,
      "byteLength": 15768,
      "target": 34962,
      "byteStride": 12
    },
    {
      "buffer": 0,
      "byteOffset": 36792,
      "byteLength": 15768,
      "target": 34962,
      "byteStride": 12
    },
    {
      "buffer": 0,
      "byteOffset": 52560,
      "byteLength": 10512,
      "target": 34962,
      "byteStride": 8
    },
    {
      "buffer": 0,
      "byteOffset": 63072,
      "byteLength": 16728,
      "target": 34963
    }
  ],
  "buffers": [
    {
      "byteLength": 79800,
      "uri": "data:application/octet-stream;base64,"
    }
  ],
  "accessors": [
    {
      "bufferView": 0,
      "componentType": 5126,
      "count": 1314,
      "max": [
        0.9961838126182556,
        0.9967215657234192,
        0.9999538660049438,
        1
      ],
      "min": [
        -0.9982993006706238,
        -0.999620258808136,
        -0.9999857544898987,
        -1
      ],
      "type": "VEC4"
    },
    {
      "bufferView": 1,
      "componentType": 5126,
      "count": 1314,
      "max": [
        0.9981136918067932,
        0.999995231628418,
        0.9998964667320251
      ],
      "min": [
        -0.9893990755081177,
        -0.9999933242797852,
        -0.9991821646690369
      ],
      "type": "VEC3"
    },
    {
      "bufferView": 2,
      "componentType": 5126,
      "count": 1314,
      "max": [
        0.20915287733078003,
        0.19829213619232178,
        0.5804659128189087
      ],
      "min": [
        -1.9037408828735352,
        -0.5625684261322021,
        -0.6476625800132751
      ],
      "type": "VEC3"
    },
    {
      "bufferView": 3,
      "componentType": 5126,
      "count": 1314,
      "max": [
        0.9923497438430786,
        0.9889438152313232
      ],
      "min": [
        0.005556929390877485,
        0.009054422378540039
      ],
      "type": "VEC2"
    },
    {
      "bufferView": 4,
      "componentType": 5125,
      "count": 4182,
      "max": [
        1313
      ],
      "min": [
        0
      ],
      "type": "SCALAR"
    }
  ],
  "materials": [
    {
      "pbrMetallicRoughness": {
        "baseColorTexture": {
          "index": 0
        }
      },
      "alphaMode": "MASK",
      "alphaCutoff": 0.5,
      "doubleSided": true,
      "extensions": {
        "KHR_materials_pbrSpecularGlossiness": {
          "specularFactor": [
            0,
            0,
            0
          ],
          "glossinessFactor": 0,
          "diffuseTexture": {
            "index": 0
          }
        }
      }
    }
  ],
  "textures": [
    {
      "sampler": 0,
      "source": 0
    }
  ],
  "samplers": [
    {
      "magFilter": 9729,
      "minFilter": 9985,
      "wrapS": 10497,
      "wrapT": 10497
    }
  ],
  "images": [
    {
      "mimeType": "image/png",
      "uri": "data:image/png;base64,"
    }
  ],
  "meshes": [
    {
      "primitives": [
        {
          "mode": 4,
          "attributes": {
            "TANGENT": 0,
            "NORMAL": 1,
            "POSITION": 2,
            "TEXCOORD_0": 3
          },
          "indices": 4,
          "material": 0
        }
      ]
    }
  ],
  "extensionsUsed": [
    "KHR_lights_punctual",
    "KHR_materials_pbrSpecularGlossiness"
  ]
}